<svg width="180" height="37" viewBox="0 0 180 37" fill="none" xmlns="http://www.w3.org/2000/svg">
<g clip-path="url(#clip0_4170_144176)">
<path d="M23.2274 17.8931V22.7589C23.2274 23.0837 23.0975 23.3951 22.8662 23.6247C22.635 23.8543 22.3213 23.9833 21.9943 23.9833H3.53084C3.20379 23.9833 2.89012 23.8543 2.65886 23.6247C2.42759 23.3951 2.29767 23.0837 2.29767 22.7589V4.42715C2.29706 4.10281 2.42609 3.79149 2.65644 3.56151C2.88678 3.33154 3.19962 3.2017 3.52628 3.2005H21.9897C22.3166 3.2011 22.6299 3.33029 22.861 3.55978C23.0922 3.78926 23.2223 4.10034 23.2229 4.42489V7.34213H25.516V4.42262C25.5148 3.49443 25.1429 2.60459 24.4818 1.94826C23.8208 1.29193 22.9246 0.922676 21.9897 0.921478H3.52628C2.59143 0.922676 1.6952 1.29193 1.03416 1.94826C0.373112 2.60459 0.00120627 3.49443 0 4.42262V22.7544C-7.79901e-07 23.6834 0.371372 24.5744 1.03255 25.2317C1.69372 25.889 2.59064 26.2589 3.52628 26.2601H21.9897C22.9246 26.2589 23.8208 25.8896 24.4818 25.2333C25.1429 24.577 25.5148 23.6871 25.516 22.7589V17.8931H23.2274Z" fill="white"/>
<path d="M12.7604 19.6831V14.8173C12.761 14.4923 12.8914 14.1809 13.123 13.9514C13.3547 13.7218 13.6686 13.5929 13.9958 13.5929H32.4592C32.7865 13.5929 33.1004 13.7218 33.332 13.9514C33.5637 14.1809 33.6941 14.4923 33.6947 14.8173V33.1491C33.6929 33.4736 33.5621 33.7844 33.3307 34.0137C33.0993 34.243 32.7861 34.3723 32.4592 34.3734H13.9958C13.6692 34.3723 13.3562 34.2429 13.1252 34.0135C12.8942 33.7842 12.7639 33.4734 12.7627 33.1491V30.2296H10.4832V33.1491C10.4844 34.0769 10.856 34.9664 11.5166 35.6226C12.1771 36.2789 13.0728 36.6484 14.0072 36.6502H32.4706C33.4055 36.649 34.3017 36.2798 34.9628 35.6234C35.6238 34.9671 35.9957 34.0773 35.9969 33.1491V14.8173C35.9957 13.8891 35.6238 12.9992 34.9628 12.3429C34.3017 11.6866 33.4055 11.3173 32.4706 11.3161H14.0072C13.0724 11.3173 12.1762 11.6866 11.5151 12.3429C10.8541 12.9992 10.4822 13.8891 10.481 14.8173V19.6831H12.7604Z" fill="white"/>
<path d="M43.1968 1.16327H57.4455V4.28646H52.2689V20.4524H48.3734V4.28193H43.1968V1.16327Z" fill="white"/>
<path d="M60.2742 0H64.172V7.04755C65.1727 5.74848 66.9073 4.92016 68.9588 4.92016C72.4372 4.92016 74.9697 7.23992 74.9697 11.4675V20.4456H71.0833V11.9903C71.0833 9.53252 69.7156 8.2063 67.6641 8.2063C65.5488 8.2063 64.1857 9.53252 64.1857 11.9903V20.4456H60.2742V0Z" fill="white"/>
<path d="M85.4139 20.6951C80.9325 20.6951 77.6775 17.6014 77.6775 12.7921C77.6775 7.98283 80.8505 4.89133 85.4139 4.89133C89.8656 4.89133 93.0113 7.90136 93.0113 12.4617C93.0163 12.9611 92.9789 13.46 92.8996 13.9531H81.6278C81.8238 16.2163 83.3829 17.4905 85.3296 17.4905C87.0004 17.4905 87.919 16.6621 88.4182 15.6392H92.6215C91.7872 18.4568 89.2228 20.6951 85.4139 20.6951ZM81.6574 11.3482H88.9767C88.9197 9.33169 87.3058 8.06205 85.3022 8.06205C83.4376 8.06205 81.9628 9.24795 81.6551 11.3482H81.6574Z" fill="white"/>
<path d="M103.002 13.0405H99.7449V20.4456H95.8494V1.16327H103.002C107.677 1.16327 110.016 3.78856 110.016 7.13355C110.014 10.0553 108.01 13.0405 103.002 13.0405ZM102.834 9.91726C105.033 9.91726 106.007 8.83999 106.007 7.12676C106.007 5.35921 105.033 4.30909 102.834 4.30909H99.7449V9.91726H102.834Z" fill="white"/>
<path d="M119.615 20.6951C115.163 20.6951 111.796 17.6014 111.796 12.7921C111.796 7.98283 115.275 4.89133 119.729 4.89133C124.183 4.89133 127.661 7.95794 127.661 12.7921C127.661 17.6263 124.099 20.6951 119.615 20.6951ZM119.615 17.323C121.666 17.323 123.649 15.8316 123.649 12.7966C123.649 9.7617 121.73 8.27026 119.67 8.27026C117.609 8.27026 115.747 9.73454 115.747 12.7966C115.747 15.8587 117.527 17.323 119.622 17.323H119.615Z" fill="white"/>
<path d="M128.799 5.13803H132.76L135.496 16.8002L138.445 5.13803H142.564L145.459 16.7708L148.194 5.13803H151.907L147.39 20.4462H143.186L140.376 9.76398L137.565 20.4462H133.335L128.799 5.13803Z" fill="white"/>
<path d="M160.745 20.6951C156.266 20.6951 153.009 17.6014 153.009 12.7921C153.009 7.98283 156.182 4.89133 160.745 4.89133C165.199 4.89133 168.342 7.90136 168.342 12.4617C168.347 12.961 168.31 13.4598 168.233 13.9531H156.961C157.155 16.2163 158.714 17.4905 160.663 17.4905C162.331 17.4905 163.25 16.6621 163.752 15.6392H167.953C167.118 18.4568 164.558 20.6951 160.745 20.6951ZM156.988 11.3482H164.308C164.253 9.33169 162.639 8.06205 160.636 8.06205C158.771 8.06205 157.294 9.24795 156.988 11.3482Z" fill="white"/>
<path d="M175.078 20.4453H171.18V5.13717H175.078V7.51351C175.563 6.70291 176.257 6.03521 177.089 5.579C177.92 5.12279 178.858 4.89452 179.808 4.91764V8.97779H178.778C176.468 8.97779 175.078 9.8627 175.078 12.8252V20.4453Z" fill="white"/>
<path d="M52.9231 27.7431C55.3324 27.7431 57.156 29.5197 57.156 32.2853C57.156 35.0509 55.3165 36.8932 52.9231 36.8932C51.2933 36.8932 50.1376 36.0852 49.5837 35.1143V36.7483H48.1021V24.7851H49.5837V29.5378C49.9317 28.973 50.4238 28.5096 51.0102 28.1944C51.5966 27.8793 52.2565 27.7236 52.9231 27.7431V27.7431ZM52.6131 29.0195C51.0015 29.0195 49.5837 30.2484 49.5837 32.3012C49.5837 34.3878 51.0015 35.5986 52.6131 35.5986C54.2246 35.5986 55.6424 34.372 55.6424 32.2853C55.6424 30.1987 54.2565 29.0195 52.6131 29.0195V29.0195Z" fill="white"/>
<path d="M67.0235 36.7486H65.5419V35.4382C64.972 36.3593 63.8802 36.8776 62.6926 36.8776C60.6411 36.8776 59.0295 35.617 59.0295 33.0777V27.8882H60.5021V32.8831C60.5021 34.6778 61.4959 35.5989 62.9935 35.5989C64.5253 35.5989 65.551 34.662 65.551 32.7541V27.8882H67.0326L67.0235 36.7486Z" fill="white"/>
<path d="M72.6901 36.8948C70.6044 36.8948 69.1387 35.7632 69.043 34.145H70.5725C70.6545 35.0028 71.4204 35.6501 72.6741 35.6501C73.8457 35.6501 74.4977 35.0661 74.4977 34.3397C74.4977 32.3684 69.2208 33.5159 69.2208 30.2184C69.2208 28.8605 70.5086 27.7448 72.494 27.7448C74.4794 27.7448 75.7673 28.7949 75.8653 30.5239H74.3837C74.3176 29.6345 73.6337 28.9895 72.4462 28.9895C71.3543 28.9895 70.7024 29.5055 70.7024 30.2184C70.7024 32.3186 75.8813 31.1712 75.9451 34.3397C75.9451 35.7904 74.6595 36.8948 72.6901 36.8948Z" fill="white"/>
<path d="M77.7869 25.4476C77.7848 25.3181 77.8084 25.1895 77.8564 25.0691C77.9045 24.9487 77.9759 24.8389 78.0668 24.746C78.1576 24.6531 78.266 24.5789 78.3858 24.5276C78.5056 24.4764 78.6343 24.4491 78.7647 24.4473H78.7944C78.924 24.4485 79.0521 24.475 79.1714 24.5253C79.2907 24.5757 79.3988 24.6489 79.4896 24.7407C79.5804 24.8325 79.6521 24.9412 79.7006 25.0606C79.7491 25.1799 79.7735 25.3076 79.7723 25.4363V25.4476C79.7753 25.5763 79.7527 25.7043 79.7059 25.8244C79.6591 25.9444 79.5889 26.0542 79.4994 26.1473C79.4098 26.2404 79.3027 26.315 79.1841 26.367C79.0655 26.419 78.9377 26.4473 78.8081 26.4502H78.7944C78.664 26.4523 78.5344 26.4288 78.4132 26.3812C78.2919 26.3335 78.1813 26.2625 78.0877 26.1723C77.9942 26.0821 77.9194 25.9745 77.8678 25.8556C77.8161 25.7366 77.7886 25.6088 77.7869 25.4793C77.7846 25.4689 77.7846 25.4581 77.7869 25.4476ZM78.0308 27.8896H79.5124V36.7477H78.0308V27.8896Z" fill="white"/>
<path d="M88.5644 31.7374C88.5644 29.9268 87.5706 29.0057 86.073 29.0057C84.5754 29.0057 83.5246 29.9427 83.5246 31.8505V36.7481H82.043V27.89H83.5246V29.1506C84.1104 28.2294 85.184 27.7293 86.3899 27.7293C88.4573 27.7293 90.037 28.9899 90.037 31.5269V36.7503H88.5713L88.5644 31.7374Z" fill="white"/>
<path d="M96.3144 36.8948C93.7751 36.8948 91.9014 35.1159 91.9014 32.3028C91.9014 29.4897 93.709 27.7448 96.3144 27.7448C98.9197 27.7448 100.597 29.5553 100.597 31.9792C100.598 32.2764 100.581 32.5733 100.547 32.8686H93.4172C93.5312 34.6633 94.8008 35.6501 96.3144 35.6501C97.6501 35.6501 98.4958 34.9711 98.8217 34.016H100.417C99.9614 35.6342 98.53 36.8948 96.3144 36.8948ZM93.4331 31.6714H99.0656C99.0839 29.9423 97.78 28.9895 96.2505 28.9895C94.8008 29.0008 93.595 29.9423 93.4331 31.6714Z" fill="white"/>
<path d="M105.71 36.8948C103.627 36.8948 102.161 35.7632 102.063 34.145H103.583C103.665 35.0028 104.431 35.6501 105.685 35.6501C106.857 35.6501 107.509 35.0661 107.509 34.3397C107.509 32.3684 102.232 33.5159 102.232 30.2184C102.232 28.8605 103.52 27.7448 105.505 27.7448C107.49 27.7448 108.778 28.7949 108.876 30.5239H107.395C107.328 29.6345 106.645 28.9895 105.457 28.9895C104.365 28.9895 103.713 29.5055 103.713 30.2184C103.713 32.3186 108.892 31.1712 108.956 34.3397C108.965 35.7904 107.686 36.8948 105.71 36.8948Z" fill="white"/>
<path d="M114.21 36.8948C112.125 36.8948 110.661 35.7632 110.563 34.145H112.093C112.175 35.0028 112.941 35.6501 114.194 35.6501C115.366 35.6501 116.018 35.0661 116.018 34.3397C116.018 32.3684 110.741 33.5159 110.741 30.2184C110.741 28.8605 112.029 27.7448 114.014 27.7448C116 27.7448 117.288 28.7949 117.386 30.5239H115.904C115.838 29.6345 115.154 28.9895 113.966 28.9895C112.875 28.9895 112.223 29.5055 112.223 30.2184C112.223 32.3186 117.402 31.1712 117.465 34.3397C117.465 35.7904 116.18 36.8948 114.21 36.8948Z" fill="white"/>
<path d="M127.061 36.8948C124.978 36.8948 123.512 35.7632 123.414 34.145H124.946C125.028 35.0028 125.792 35.6501 127.045 35.6501C128.219 35.6501 128.869 35.0661 128.869 34.3397C128.869 32.3684 123.594 33.5159 123.594 30.2184C123.594 28.8605 124.88 27.7448 126.868 27.7448C128.855 27.7448 130.139 28.7949 130.237 30.5239H128.755C128.691 29.6345 128.007 28.9895 126.817 28.9895C125.728 28.9895 125.076 29.5055 125.076 30.2184C125.076 32.3186 130.255 31.1712 130.319 34.3397C130.312 35.7904 129.026 36.8948 127.061 36.8948Z" fill="white"/>
<path d="M136.191 27.7448C138.404 27.7448 139.854 28.8763 140.31 30.7344H138.714C138.404 29.6685 137.508 28.9895 136.191 28.9895C134.563 28.9895 133.358 30.1369 133.358 32.3028C133.358 34.5026 134.563 35.6501 136.191 35.6501C137.508 35.6501 138.388 35.0186 138.714 33.9029H140.31C139.854 35.6659 138.404 36.8948 136.191 36.8948C133.652 36.8948 131.844 35.1159 131.844 32.3028C131.844 29.4897 133.652 27.7448 136.191 27.7448Z" fill="white"/>
<path d="M142.279 24.7851H143.761V29.1644C144.349 28.2274 145.454 27.7273 146.708 27.7273C148.696 27.7273 150.275 28.9879 150.275 31.5249V36.746H148.81V31.7354C148.81 29.9248 147.816 29.0037 146.318 29.0037C144.821 29.0037 143.763 29.9407 143.763 31.8485V36.746H142.281L142.279 24.7851Z" fill="white"/>
<path d="M156.592 36.8948C154.068 36.8948 152.147 35.1159 152.147 32.3028C152.147 29.4897 154.134 27.7448 156.658 27.7448C159.181 27.7448 161.166 29.5055 161.166 32.3028C161.166 35.1001 159.131 36.8948 156.592 36.8948ZM156.592 35.6003C158.139 35.6003 159.653 34.5501 159.653 32.3028C159.653 30.0555 158.171 29.0212 156.642 29.0212C155.112 29.0212 153.66 30.0713 153.66 32.3028C153.66 34.5343 155.046 35.6003 156.592 35.6003V35.6003Z" fill="white"/>
<path d="M167.013 36.8948C164.49 36.8948 162.568 35.1159 162.568 32.3028C162.568 29.4897 164.553 27.7448 167.077 27.7448C169.6 27.7448 171.588 29.5055 171.588 32.3028C171.588 35.1001 169.552 36.8948 167.013 36.8948ZM167.013 35.6003C168.558 35.6003 170.074 34.5501 170.074 32.3028C170.074 30.0555 168.593 29.0212 167.061 29.0212C165.529 29.0212 164.082 30.0713 164.082 32.3028C164.082 34.5343 165.465 35.6003 167.013 35.6003V35.6003Z" fill="white"/>
<path d="M173.542 24.7851H175.023V36.746H173.542V24.7851Z" fill="white"/>
</g>
<defs>
<clipPath id="clip0_4170_144176">
<rect width="180" height="36.8944" fill="white"/>
</clipPath>
</defs>
</svg>
